<svg width="170" height="170" viewBox="0 0 170 170" fill="none" xmlns="http://www.w3.org/2000/svg">
<circle cx="85" cy="85" r="85" fill="#D9D9D9"/>
<path d="M162 85C162 127.526 127.526 162 85 162C42.4741 162 8 127.526 8 85C8 42.4741 42.4741 8 85 8C127.526 8 162 42.4741 162 85ZM16.116 85C16.116 123.044 46.9564 153.884 85 153.884C123.044 153.884 153.884 123.044 153.884 85C153.884 46.9564 123.044 16.116 85 16.116C46.9564 16.116 16.116 46.9564 16.116 85Z" fill="#2F2F2F"/>
<line x1="49" y1="52.9091" x2="133" y2="52.9091" stroke="#2F2F2F" stroke-width="10"/>
<line x1="37" y1="42" x2="62.0909" y2="42" stroke="#2F2F2F" stroke-width="10"/>
<line x1="62.4545" y1="112.727" x2="75.5455" y2="95.2728" stroke="#2F2F2F" stroke-width="10"/>
<line x1="66.4545" y1="110.727" x2="125.364" y2="110.727" stroke="#2F2F2F" stroke-width="10"/>
<line x1="66.4545" y1="93.2727" x2="115.545" y2="93.2727" stroke="#2F2F2F" stroke-width="10"/>
<line x1="53.5893" y1="55.9245" x2="71.0438" y2="96.2882" stroke="#2F2F2F" stroke-width="10"/>
<line y1="-5" x2="43.9759" y2="-5" transform="matrix(-0.396911 0.917857 0.917857 0.396911 133 57.9091)" stroke="#2F2F2F" stroke-width="10"/>
<circle cx="67" cy="126.091" r="9.86364" fill="#2F2F2F" stroke="#2F2F2F"/>
<circle cx="116.091" cy="126.091" r="9.86364" fill="#2F2F2F" stroke="#2F2F2F"/>
</svg>
